<?xml version="1.0" encoding="UTF-8"?>
<!--Generator: Apple Native CoreSVG 326-->
<!DOCTYPE svg
PUBLIC "-//W3C//DTD SVG 1.1//EN"
       "http://www.w3.org/Graphics/SVG/1.1/DTD/svg11.dtd">
<svg version="1.1" xmlns="http://www.w3.org/2000/svg" xmlns:xlink="http://www.w3.org/1999/xlink" viewBox="0 0 87.5853 90.1534">
 <g>
  <rect height="90.1534" opacity="0" width="87.5853" x="0" y="0"/>
  <path d="M43.634 56.5119C46.3472 56.553 49.1225 55.855 52.5837 54.2703L83.8614 39.9737C86.0429 38.9795 87.2435 37.0487 87.2435 34.9427C87.2435 32.8533 86.0429 30.897 83.8614 29.895L52.5837 15.5983C49.1225 14.0303 46.3472 13.3323 43.634 13.3567C40.8963 13.3323 38.1376 14.0303 34.6765 15.5983L3.39877 29.895C1.20058 30.897 0 32.8533 0 34.9427C0 37.0487 1.20058 38.9795 3.39877 39.9737L34.6765 54.2703C38.1376 55.855 40.8963 56.553 43.634 56.5119ZM43.634 50.4317C41.6175 50.4317 39.6987 49.9345 37.0497 48.7116L8.93607 35.8938C8.42001 35.664 8.17362 35.3355 8.17362 34.9427C8.17362 34.5331 8.42001 34.2046 8.93607 33.9749L37.0497 21.1737C39.6987 19.9586 41.6175 19.4536 43.634 19.4536C45.6504 19.4536 47.5448 19.9586 50.1938 21.1737L78.3319 33.9749C78.8235 34.2046 79.0699 34.5331 79.0699 34.9427C79.0699 35.3355 78.8235 35.664 78.3319 35.8938L50.1938 48.7116C47.5448 49.9345 45.6504 50.4317 43.634 50.4317ZM12.6476 58.2017C12.6476 67.9234 25.2502 75.9967 43.634 75.9967C62.0011 75.9967 74.5959 67.9234 74.5959 58.2017L74.5959 41.9286L68.6909 41.9286L68.6909 58.2017C68.6909 64.3086 58.7999 70.3735 43.634 70.3735C28.4603 70.3735 18.5693 64.3086 18.5693 58.2017L18.5693 41.9286L12.6476 41.9286ZM43.7083 38.9728C47.3903 38.9728 50.7936 37.2651 50.7936 34.926C50.7936 32.6369 47.3825 30.9602 43.7083 30.9602C40.0175 30.9602 36.5897 32.6524 36.5897 34.926C36.5897 37.2651 40.002 38.9728 43.7083 38.9728ZM25.4104 46.282L43.0216 37.2738L40.9811 33.7132L20.8988 43.8975ZM20.8988 76.6719L25.4104 76.6797L25.4104 46.282L20.8988 43.9963ZM18.0525 77.2344L18.0525 85.778C18.0525 88.4479 19.7658 90.1534 22.4278 90.1534L23.8491 90.1534C26.4945 90.1534 28.2244 88.4479 28.2244 85.778L28.2244 77.2344C28.2244 74.5889 26.4945 72.8757 23.8491 72.8757L22.4278 72.8757C19.7658 72.8757 18.0525 74.5889 18.0525 77.2344Z" fill="white" fill-opacity="0.85"/>
 </g>
</svg>
