<?xml version="1.0" encoding="UTF-8"?>
<!--Generator: Apple Native CoreSVG 326-->
<!DOCTYPE svg
PUBLIC "-//W3C//DTD SVG 1.1//EN"
       "http://www.w3.org/Graphics/SVG/1.1/DTD/svg11.dtd">
<svg version="1.1" xmlns="http://www.w3.org/2000/svg" xmlns:xlink="http://www.w3.org/1999/xlink" viewBox="0 0 80 80">
 <g>
  <rect height="65.0604" opacity="0" width="65.3612" x="0" y="0"/>
  <path d="M32.5014 65.0194C50.451 65.0194 65.0194 50.4599 65.0194 32.518C65.0194 14.5684 50.451 0 32.5014 0C14.5517 0 0 14.5684 0 32.518C0 50.4599 14.5517 65.0194 32.5014 65.0194ZM32.5014 58.6694C18.0434 58.6694 6.34991 46.9759 6.34991 32.518C6.34991 18.0601 18.0434 6.3588 32.5014 6.3588C46.9593 6.3588 58.6528 18.0601 58.6528 32.518C58.6528 46.9759 46.9593 58.6694 32.5014 58.6694Z" fill="white" fill-opacity="0.85"/>
  <path d="M23.5145 48.1365L41.456 48.1365C44.7641 48.1365 46.5895 46.351 46.5895 43.0274L46.5895 28.0054L18.3721 28.0054L18.3721 43.0274C18.3721 46.3676 20.2065 48.1365 23.5145 48.1365ZM27.2088 34.3417C26.4642 34.3417 25.9072 33.8091 25.9072 33.0157L25.9072 32.5185C25.9072 31.7096 26.4565 31.2091 27.2088 31.2091L37.7528 31.2091C38.5218 31.2091 39.0544 31.7096 39.0544 32.5185L39.0544 33.0157C39.0544 33.8091 38.5218 34.3417 37.7528 34.3417ZM18.8193 25.5308L46.1501 25.5308C48.0655 25.5308 49.0642 24.4089 49.0642 22.5268L49.0642 20.88C49.0642 18.989 48.0655 17.8594 46.1501 17.8594L18.8193 17.8594C16.9783 17.8594 15.9141 18.989 15.9141 20.88L15.9141 22.5268C15.9141 24.4089 16.8962 25.5308 18.8193 25.5308Z" fill="white" fill-opacity="0.85"/>
 </g>
</svg>
