<?xml version="1.0" encoding="UTF-8"?> <!--Generator: Apple Native CoreSVG 326--> <!DOCTYPE svg PUBLIC "-//W3C//DTD SVG 1.1//EN"        "http://www.w3.org/Graphics/SVG/1.1/DTD/svg11.dtd"> <svg version="1.1" xmlns="http://www.w3.org/2000/svg" xmlns:xlink="http://www.w3.org/1999/xlink" viewBox="0 0 55.5904 58.753">  <g>   <rect height="58.753" opacity="0" width="55.5904" x="0" y="0"/>   <path d="M7.83651 58.7208L47.4121 58.7208C52.6897 58.7208 55.2486 56.9975 55.2486 53.3224C55.2486 44.5747 44.3447 33.2085 27.6121 33.2085C10.8961 33.2085 0 44.5747 0 53.3224C0 56.9975 2.55888 58.7208 7.83651 58.7208ZM7.16037 53.4093C6.22028 53.4093 5.88952 53.1152 5.88952 52.4304C5.88952 47.4328 13.7777 38.5445 27.6121 38.5445C41.4709 38.5445 49.3591 47.4328 49.3591 52.4304C49.3591 53.1152 49.0206 53.4093 48.0882 53.4093ZM27.6454 29.4774C35.2447 29.4774 41.3493 22.8346 41.3493 14.575C41.3493 6.48515 35.2214 0 27.6454 0C20.0938 0 13.9327 6.56728 13.9327 14.6161C13.9327 22.8513 20.0461 29.4774 27.6454 29.4774ZM27.6454 24.1658C23.1707 24.1658 19.4495 20.0806 19.4495 14.6083C19.4495 9.33792 23.1696 5.31931 27.6454 5.31931C32.1368 5.31931 35.8324 9.28021 35.8324 14.575C35.8324 20.0396 32.1356 24.1658 27.6454 24.1658Z" fill="black" fill-opacity="0.8"/>  </g> </svg>