<?xml version="1.0" encoding="UTF-8"?>
<svg id="Layer_1" data-name="Layer 1" xmlns="http://www.w3.org/2000/svg" viewBox="0 0 100 100">
  <defs>
    <style>
      .cls-1 {
        stroke-linecap: round;
        stroke-linejoin: round;
        stroke-width: 3px;
      }

      .cls-1, .cls-2 {
        fill: none;
        stroke: #414042;
      }

      .cls-2 {
        stroke-miterlimit: 10;
        stroke-width: 7px;
      }

      .cls-3 {
        fill: #414042;
      }
    </style>
  </defs>
  <polyline class="cls-1" points="47.39 36.39 53.26 41.58 59.13 35.89"/>
  <circle class="cls-3" cx="60.59" cy="27.49" r="2.63"/>
  <circle class="cls-3" cx="46.48" cy="27.5" r="2.63"/>
  <path class="cls-2" d="M83,96.22H18.45c-3.78,0-6.84-3.06-6.84-6.84v-5.08c0-5.91,4.03-11.31,10.4-13.91,10.71-4.37,13.75-3.57,18.24-2.39,2.66.7,5.66,1.49,10.69,1.49s8.05-.79,10.7-1.49c4.51-1.19,7.54-1.99,18.24,2.42,6.36,2.63,10.39,8.04,10.39,13.96v4.55c0,4.02-3.26,7.27-7.27,7.27Z"/>
  <circle class="cls-2" cx="50.94" cy="30" r="26.22"/>
</svg>