<?xml version="1.0" encoding="UTF-8"?>
<svg id="Layer_1" data-name="Layer 1" xmlns="http://www.w3.org/2000/svg" viewBox="0 0 100 100">
  <defs>
    <style>
      .cls-1 {
        fill: #231f20;
      }

      .cls-2 {
        stroke-linecap: round;
        stroke-linejoin: round;
        stroke-width: 5px;
      }

      .cls-2, .cls-3 {
        fill: none;
        stroke: #231f20;
      }

      .cls-3 {
        stroke-miterlimit: 10;
        stroke-width: 7.76px;
      }
    </style>
  </defs>
  <polyline class="cls-2" points="48.28 38.24 54.15 43.43 60.02 37.75"/>
  <circle class="cls-1" cx="61.87" cy="29.79" r="2.63"/>
  <circle class="cls-1" cx="47.76" cy="29.8" r="2.63"/>
  <path class="cls-3" d="M82.79,96.08H18.54c-3.76,0-6.81-3.05-6.81-6.81v-5.05c0-5.88,4.01-11.26,10.35-13.85,10.66-4.35,13.69-3.55,18.16-2.37,2.64.7,5.63,1.49,10.64,1.49s8.01-.79,10.65-1.49c4.49-1.18,7.51-1.98,18.16,2.41,6.33,2.61,10.34,8.01,10.34,13.9v4.53c0,4-3.24,7.24-7.24,7.24Z"/>
  <circle class="cls-3" cx="50.88" cy="30.16" r="26.1"/>
</svg>