<?xml version="1.0" encoding="UTF-8"?>
<svg id="Layer_1" data-name="Layer 1" xmlns="http://www.w3.org/2000/svg" viewBox="0 0 100 100">
  <defs>
    <style>
      .cls-1 {
        fill: none;
        stroke: #414042;
        stroke-linecap: square;
        stroke-linejoin: round;
        stroke-width: 7px;
      }
    </style>
  </defs>
  <path class="cls-1" d="M20.68,75.03c-5.74,0-9.7-.59-12.97-3.59-4.04-3.86-5.31-9.75-3.25-14.99,1.78-4.37,5.81-7.39,10.52-7.88l2.75-.29.35-2.74c1.16-8.94,6.58-16.84,14.5-21.14,4.12-2.23,8.75-3.41,13.4-3.41,10.35,0,19.85,5.65,24.78,14.74l1.22,2.24,2.51-.47c1.06-.2,2.15-.31,3.24-.32h.2c10.13,0,18.47,8.25,18.57,18.39v1.11c-.47,10.28-8.91,18.36-19.21,18.36-.26,0-.52,0-.79-.02H25.2c-.73,0-1.45,0-2.18.01h-.13c-.74,0-1.48.02-2.22.02Z"/>
</svg>