<?xml version="1.0" encoding="UTF-8"?>
<svg id="Layer_1" data-name="Layer 1" xmlns="http://www.w3.org/2000/svg" viewBox="0 0 100 100">
  <defs>
    <style>
      .cls-1 {
        fill: none;
        stroke: black;
	stroke-opacity: 0.8;
        stroke-linecap: square;
        stroke-linejoin: round;
        stroke-width: 7.71px;
      }
    </style>
  </defs>
  <path class="cls-1" d="M20.93,74.77c-5.67,0-9.59-.58-12.82-3.55-3.99-3.82-5.25-9.64-3.21-14.82,1.76-4.32,5.74-7.3,10.4-7.79l2.72-.29.35-2.71c1.14-8.84,6.5-16.65,14.33-20.9,4.07-2.21,8.65-3.38,13.25-3.38,10.23,0,19.62,5.58,24.5,14.57l1.2,2.22,2.48-.47c1.05-.2,2.13-.3,3.2-.31h.2c10.02,0,18.26,8.15,18.36,18.18v1.09c-.46,10.17-8.8,18.15-19,18.15-.26,0-.52,0-.78-.02H25.4c-.72,0-1.43,0-2.15.01h-.12c-.73,0-1.47.02-2.19.02Z"/>
</svg>