<?xml version="1.0" encoding="UTF-8"?> <!--Generator: Apple Native CoreSVG 326--> <!DOCTYPE svg PUBLIC "-//W3C//DTD SVG 1.1//EN"        "http://www.w3.org/Graphics/SVG/1.1/DTD/svg11.dtd"> <svg version="1.1" xmlns="http://www.w3.org/2000/svg" xmlns:xlink="http://www.w3.org/1999/xlink" viewBox="0 0 78.1161 52.2272">  <g>   <rect height="52.2272" opacity="0" width="78.1161" x="0" y="0"/>   <path d="M17.2303 51.0944L58.7739 51.0944C69.659 51.0944 78.1161 42.8415 78.1161 32.2682C78.1161 21.5896 69.5802 13.44 57.9904 13.44C53.7224 5.00498 46.0698 0 36.3231 0C23.9021 0 13.5118 9.42945 12.157 22.1701C5.62637 24.1453 1.26953 29.554 1.26953 36.4087C1.26953 44.6303 7.33944 51.0944 17.2303 51.0944ZM17.2902 45.3058C10.8679 45.3058 7.05812 41.7911 7.05812 36.5541C7.05812 31.9863 10.0279 28.7036 15.3024 27.3198C17.0058 26.8814 17.5906 26.1579 17.7825 24.3303C18.7789 13.5215 26.5618 5.79636 36.3231 5.79636C43.8807 5.79636 49.7557 10.0634 53.35 17.2623C54.119 18.7781 54.979 19.2897 56.8611 19.2897C66.5568 19.2897 72.3031 24.9906 72.3031 32.4214C72.3031 39.6792 66.5168 45.3058 58.895 45.3058Z" fill="black" fill-opacity="0.8"/>  </g> </svg>