<?xml version="1.0" encoding="UTF-8"?>
<svg id="Layer_1" data-name="Layer 1" xmlns="http://www.w3.org/2000/svg" viewBox="0 0 100 100">
  <defs>
    <style>
      .cls-1 {
        fill: #414042;
      }
    </style>
  </defs>
  <path class="cls-1" d="M99.19,85.48c1.52,3.44.1,5.87-3.62,6.31l-19.42,2.09c-4.87.57-5.99-2.15-5.26-7.11.99-6.59,6.31-16.18,10.62-19.62,3.85-3.08,7.8-3.97,9.74.48l7.93,17.88v-.03Z"/>
  <path class="cls-1" d="M46.65,34.77l.06,25.98-20.95,10.52c2.15,2.38,3.66,6.51,3.66,6.51l21.41-9.94,19.83,9.97s1.39-3.71,3.93-7.2l-19.62-9.86v-25.98s-3.93.79-8.32,0Z"/>
  <path class="cls-1" d="M.6,85.48c-1.52,3.44-.1,5.87,3.62,6.31l19.42,2.09c4.87.57,5.99-2.15,5.26-7.11-.99-6.59-6.31-16.18-10.62-19.62-3.85-3.08-7.8-3.97-9.74.48L.6,85.48Z"/>
  <path class="cls-1" d="M47.18,6.74l-11.47,15.73c-2.94,3.94-1.2,6.74,3.54,8.16,7.31,2.2,17.35,1.96,23.17,0,4.81-1.61,6.54-4.12,3.59-8.16l-11.52-15.75c-2.24-3.03-5.05-3.06-7.29,0h-.01Z"/>
</svg>