<?xml version="1.0" encoding="UTF-8"?> <!--Generator: Apple Native CoreSVG 326--> <!DOCTYPE svg PUBLIC "-//W3C//DTD SVG 1.1//EN"        "http://www.w3.org/Graphics/SVG/1.1/DTD/svg11.dtd"> <svg version="1.1" xmlns="http://www.w3.org/2000/svg" xmlns:xlink="http://www.w3.org/1999/xlink" viewBox="0 0 68.4286 62.2816">  <g>   <rect height="62.2816" opacity="0" width="68.4286" x="0" y="0"/>   <path d="M8.47309 49.2496L11.4378 54.3191L34.0473 42.9578L56.6656 54.3191L59.6215 49.2496L37.0042 37.8894L37.0042 11.1229L31.0992 11.1229L31.0992 37.8894ZM0.403168 54.2364C-0.615481 56.5377 0.334319 58.1699 2.82098 58.4517L15.8214 59.8477C19.0847 60.2261 21.0299 57.9825 19.3366 55.0887L11.5663 41.6322C9.91301 38.7694 7.00814 39.2976 5.70991 42.2713ZM67.7003 54.2364L62.3769 42.2713C61.0787 39.2976 58.1738 38.7694 56.5449 41.6322L48.7502 55.0887C47.0813 57.9825 49.0021 60.2261 52.282 59.8477L65.2658 58.4517C67.7525 58.1699 68.71 56.5377 67.7003 54.2364ZM31.5729 1.536L23.8958 12.0651C21.9296 14.7004 22.9559 17.5287 26.2614 17.5287L41.7688 17.5287C45.1642 17.5287 46.1483 14.7647 44.1666 12.0729L36.4573 1.52824C34.956-0.497928 33.0742-0.523465 31.5729 1.536Z" fill="black" fill-opacity="0.8"/>  </g> </svg>