<?xml version="1.0" encoding="UTF-8"?>
<svg id="Layer_1" data-name="Layer 1" xmlns="http://www.w3.org/2000/svg" viewBox="0 0 100 100">
  <defs>
    <style>
      .cls-1 {
        stroke-linejoin: round;
      }

      .cls-1, .cls-2, .cls-3 {
        stroke: #231f20;
      }

      .cls-1, .cls-3 {
        fill: none;
        stroke-width: 7.8px;
      }

      .cls-2 {
        fill: #414042;
        stroke-linecap: round;
        stroke-width: 3.9px;
      }

      .cls-2, .cls-3 {
        stroke-miterlimit: 10;
      }
    </style>
  </defs>
  <ellipse class="cls-3" cx="49.54" cy="19.36" rx="41.1" ry="15.35"/>
  <path class="cls-3" d="M9.49,15.92s-5.63,4.54-4,19.23c1.07,9.63,8.66,22.5,35.22,25.02,21.9,2.07,50.4-2.63,52.88-25.46,1.36-12.45-3.97-18.44-3.97-18.44"/>
  <path class="cls-1" d="M18.36,55.63l-7.49,17.04c-.55,1.26-.08,2.73,1.1,3.43l32.15,19.2c1.38.82,3.06.99,4.57.44l38.41-13.85c1.12-.4,1.65-1.69,1.12-2.76-2.76-5.55-9.98-21.04-6.94-25.15"/>
  <path class="cls-1" d="M53.87,60.61s-7.84,1.09-7.28,12.02c.4,7.75.35,22.88.35,22.88"/>
  <path class="cls-2" d="M27.11,32.06v11.54"/>
  <path class="cls-2" d="M18.39,28.29v10.56"/>
  <path class="cls-2" d="M37.51,34.32v12.37"/>
  <path class="cls-2" d="M48.81,33.91v13.83"/>
  <path class="cls-2" d="M59.71,32.91v14.06"/>
  <path class="cls-2" d="M70.73,31v12.98"/>
  <path class="cls-2" d="M80.49,27.68v11.18"/>
</svg>