<?xml version="1.0" encoding="UTF-8"?> <!--Generator: Apple Native CoreSVG 326--> <!DOCTYPE svg PUBLIC "-//W3C//DTD SVG 1.1//EN"        "http://www.w3.org/Graphics/SVG/1.1/DTD/svg11.dtd"> <svg version="1.1" xmlns="http://www.w3.org/2000/svg" xmlns:xlink="http://www.w3.org/1999/xlink" viewBox="0 0 65.0345 87.8593">  <g>   <rect height="87.8593" opacity="0" width="65.0345" x="0" y="0"/>   <path d="M23.9571 37.2747C12.9895 38.4198 6.169 41.8746 6.169 46.5175C6.169 52.2595 16.573 56.157 32.338 56.157C48.1197 56.157 58.5237 52.2595 58.5237 46.5175C58.5237 41.8745 51.7028 38.4196 40.7258 37.2746L45.3864 31.9449C57.4152 34.0718 64.6927 39.3161 64.6927 46.5175L64.6927 59.2725C64.6927 72.813 52.4192 78.7142 32.338 78.7142C12.249 78.7142 0 72.813 0 59.2725L2.72747e-08 46.5175C0 39.3146 7.28048 34.0696 19.3068 31.9437ZM53.2535 59.0003L53.2535 63.0733C53.2535 64.2062 52.3236 65.1361 51.2073 65.1361C50.0666 65.1361 49.1445 64.214 49.1445 63.0733L49.1445 60.2704C47.5823 60.6843 45.8972 61.0253 44.0913 61.2847L44.0913 65.1397C44.0913 66.2638 43.1692 67.1859 42.0285 67.1859C40.8966 67.1859 39.9667 66.2638 39.9667 65.1397L39.9667 61.7952C38.1303 61.9748 36.1955 62.0812 34.1622 62.1039L34.1622 65.8899C34.1622 67.0306 33.2401 67.945 32.0916 67.945C30.9676 67.945 30.0454 67.0306 30.0454 65.8899L30.0454 62.0946C28.0031 62.0597 26.06 61.941 24.2243 61.7431L24.2243 65.1397C24.2243 66.2638 23.2866 67.1859 22.1626 67.1859C21.0385 67.1859 20.1164 66.2638 20.1164 65.1397L20.1164 61.2105C18.2997 60.9332 16.606 60.5734 15.0465 60.1349L15.0465 63.0733C15.0465 64.214 14.1244 65.1361 13.0003 65.1361C11.8674 65.1361 10.9375 64.2062 10.9375 63.0733L10.9375 58.8186C9.12991 58.117 7.52671 57.3089 6.169 56.3926L6.169 59.2725C6.169 68.7999 16.1623 72.5452 32.338 72.5452C48.5226 72.5452 58.5237 68.7999 58.5237 59.2725L58.5237 56.3918C57.0411 57.3894 55.2721 58.2608 53.2535 59.0003Z" fill="black" fill-opacity="0.8"/>   <path d="M34.3143 38.1003L43.0254 28.1054C44.7231 26.2223 43.73 23.5348 41.028 23.5348L35.3328 23.5348L35.3328 7.24036C35.3328 5.50389 34.0213 4.27001 32.3547 4.27001C30.6881 4.27001 29.3766 5.50389 29.3766 7.24036L29.3766 23.5348L23.6003 23.5348C21.0282 23.5348 19.9274 26.1802 21.6263 28.1054L30.3462 38.1003C31.4803 39.3964 33.1636 39.4131 34.3143 38.1003Z" fill="black" fill-opacity="0.8"/>  </g> </svg>