<?xml version="1.0" encoding="UTF-8"?>
<svg id="Layer_1" data-name="Layer 1" xmlns="http://www.w3.org/2000/svg" viewBox="0 0 100 100">
  <defs>
    <style>
      .cls-1 {
        stroke-miterlimit: 10;
      }

      .cls-1, .cls-2 {
        fill: none;
        stroke: #414042;
        stroke-width: 6px;
      }

      .cls-2 {
        stroke-linejoin: round;
      }
    </style>
  </defs>
  <ellipse class="cls-1" cx="50.04" cy="19.07" rx="41.54" ry="15.52"/>
  <path class="cls-1" d="M9.55,15.6s-5.69,4.59-4.04,19.44c1.08,9.73,8.75,22.75,35.6,25.29,22.14,2.09,50.94-2.65,53.45-25.73,1.37-12.59-4.02-18.64-4.02-18.64"/>
  <path class="cls-2" d="M19.14,55.57l-7.57,17.23c-.56,1.27-.08,2.76,1.11,3.47l32.5,19.41c1.4.83,3.09,1,4.62.45l38.83-13.99c1.14-.41,1.66-1.71,1.13-2.79-2.78-5.61-10.09-21.27-7.01-25.42"/>
  <path class="cls-2" d="M55.03,60.61s-7.92,1.1-7.36,12.15c.4,7.83.35,23.13.35,23.13"/>
</svg>